<mxfile host="app.diagrams.net" modified="2024-03-25T22:53:46.627Z" agent="Mozilla/5.0 (Windows NT 10.0; Win64; x64) AppleWebKit/537.36 (KHTML, like Gecko) Chrome/122.0.0.0 Safari/537.36 Edg/122.0.0.0" etag="1BtUIrAYeafHbIzG5YEL" version="24.0.6" type="device">
  <diagram name="Strona-1" id="Rb3qtv0PFc3O9XU-Ekxh">
    <mxGraphModel dx="1611" dy="1723" grid="1" gridSize="10" guides="1" tooltips="1" connect="1" arrows="1" fold="1" page="1" pageScale="1" pageWidth="827" pageHeight="1169" math="0" shadow="0">
      <root>
        <mxCell id="0" />
        <mxCell id="1" parent="0" />
        <mxCell id="z22SKGCjVlnt71E5X0xT-3" value="" style="rounded=0;whiteSpace=wrap;html=1;movable=1;resizable=1;rotatable=1;deletable=1;editable=1;locked=0;connectable=1;" parent="1" vertex="1">
          <mxGeometry x="120" y="80" width="640" height="1130" as="geometry" />
        </mxCell>
        <mxCell id="Mx-L_WkLYWnQmIfqrnJd-2" value="" style="rounded=0;whiteSpace=wrap;html=1;movable=1;resizable=1;rotatable=1;deletable=1;editable=1;locked=0;connectable=1;" parent="1" vertex="1">
          <mxGeometry x="440" y="120" width="280" height="1060" as="geometry" />
        </mxCell>
        <mxCell id="z22SKGCjVlnt71E5X0xT-4" value="" style="rounded=0;whiteSpace=wrap;html=1;movable=1;resizable=1;rotatable=1;deletable=1;editable=1;locked=0;connectable=1;" parent="1" vertex="1">
          <mxGeometry x="160" y="120" width="280" height="1060" as="geometry" />
        </mxCell>
        <mxCell id="z22SKGCjVlnt71E5X0xT-6" value="&lt;div&gt;&lt;font face=&quot;Verdana&quot;&gt;Użytkownik&lt;/font&gt;&lt;/div&gt;" style="rounded=0;whiteSpace=wrap;html=1;movable=1;resizable=1;rotatable=1;deletable=1;editable=1;locked=0;connectable=1;" parent="1" vertex="1">
          <mxGeometry x="160" y="120" width="280" height="20" as="geometry" />
        </mxCell>
        <mxCell id="z22SKGCjVlnt71E5X0xT-7" value="&lt;font face=&quot;Verdana&quot;&gt;System&lt;/font&gt;" style="rounded=0;whiteSpace=wrap;html=1;movable=1;resizable=1;rotatable=1;deletable=1;editable=1;locked=0;connectable=1;" parent="1" vertex="1">
          <mxGeometry x="440" y="120" width="280" height="20" as="geometry" />
        </mxCell>
        <mxCell id="z22SKGCjVlnt71E5X0xT-8" value="" style="endArrow=none;html=1;rounded=0;movable=1;resizable=1;rotatable=1;deletable=1;editable=1;locked=0;connectable=1;" parent="1" edge="1">
          <mxGeometry width="50" height="50" relative="1" as="geometry">
            <mxPoint x="280" y="85" as="sourcePoint" />
            <mxPoint x="280" y="80" as="targetPoint" />
          </mxGeometry>
        </mxCell>
        <mxCell id="z22SKGCjVlnt71E5X0xT-9" value="" style="endArrow=none;html=1;rounded=0;movable=1;resizable=1;rotatable=1;deletable=1;editable=1;locked=0;connectable=1;" parent="1" edge="1">
          <mxGeometry width="50" height="50" relative="1" as="geometry">
            <mxPoint x="270" y="95" as="sourcePoint" />
            <mxPoint x="280" y="85" as="targetPoint" />
          </mxGeometry>
        </mxCell>
        <mxCell id="z22SKGCjVlnt71E5X0xT-10" value="" style="endArrow=none;html=1;rounded=0;movable=1;resizable=1;rotatable=1;deletable=1;editable=1;locked=0;connectable=1;" parent="1" edge="1">
          <mxGeometry width="50" height="50" relative="1" as="geometry">
            <mxPoint x="120" y="95" as="sourcePoint" />
            <mxPoint x="270" y="95" as="targetPoint" />
          </mxGeometry>
        </mxCell>
        <mxCell id="z22SKGCjVlnt71E5X0xT-11" value="&lt;font face=&quot;Verdana&quot; style=&quot;font-size: 9px;&quot;&gt;act subskrypcja_diety&lt;br&gt;&lt;/font&gt;" style="text;html=1;align=left;verticalAlign=bottom;whiteSpace=wrap;rounded=0;textShadow=0;fontStyle=0;movable=1;resizable=1;rotatable=1;deletable=1;editable=1;locked=0;connectable=1;" parent="1" vertex="1">
          <mxGeometry x="122" y="75.4" width="168" height="20" as="geometry" />
        </mxCell>
        <mxCell id="z22SKGCjVlnt71E5X0xT-12" value="" style="edgeStyle=orthogonalEdgeStyle;rounded=0;orthogonalLoop=1;jettySize=auto;html=1;endArrow=open;endFill=0;movable=1;resizable=1;rotatable=1;deletable=1;editable=1;locked=0;connectable=1;" parent="1" source="z22SKGCjVlnt71E5X0xT-13" target="z22SKGCjVlnt71E5X0xT-15" edge="1">
          <mxGeometry relative="1" as="geometry" />
        </mxCell>
        <mxCell id="z22SKGCjVlnt71E5X0xT-13" value="" style="ellipse;whiteSpace=wrap;html=1;aspect=fixed;fillColor=#000000;movable=1;resizable=1;rotatable=1;deletable=1;editable=1;locked=0;connectable=1;" parent="1" vertex="1">
          <mxGeometry x="290" y="150" width="20" height="20" as="geometry" />
        </mxCell>
        <mxCell id="z22SKGCjVlnt71E5X0xT-15" value="Wybranie opcji subskrypcji diety" style="rounded=1;whiteSpace=wrap;html=1;fillColor=#FCF2E3;gradientColor=#E8D7BE;gradientDirection=east;movable=1;resizable=1;rotatable=1;deletable=1;editable=1;locked=0;connectable=1;" parent="1" vertex="1">
          <mxGeometry x="240" y="200" width="120" height="50" as="geometry" />
        </mxCell>
        <mxCell id="Mx-L_WkLYWnQmIfqrnJd-16" style="edgeStyle=orthogonalEdgeStyle;rounded=0;orthogonalLoop=1;jettySize=auto;html=1;entryX=0.5;entryY=0;entryDx=0;entryDy=0;exitX=1;exitY=0.75;exitDx=0;exitDy=0;movable=1;resizable=1;rotatable=1;deletable=1;editable=1;locked=0;connectable=1;" parent="1" target="z22SKGCjVlnt71E5X0xT-55" edge="1">
          <mxGeometry relative="1" as="geometry">
            <mxPoint x="360" y="233.75" as="sourcePoint" />
            <Array as="points">
              <mxPoint x="360" y="230" />
              <mxPoint x="410" y="230" />
              <mxPoint x="410" y="227" />
              <mxPoint x="530" y="227" />
            </Array>
          </mxGeometry>
        </mxCell>
        <mxCell id="z22SKGCjVlnt71E5X0xT-30" value="&lt;div&gt;&lt;font face=&quot;Verdana&quot;&gt;&lt;span style=&quot;font-size: 8px;&quot;&gt;Płatność się powiodła?&lt;/span&gt;&lt;/font&gt;&lt;/div&gt;" style="text;html=1;align=center;verticalAlign=bottom;whiteSpace=wrap;rounded=0;textShadow=0;fontStyle=0;movable=1;resizable=1;rotatable=1;deletable=1;editable=1;locked=0;connectable=1;" parent="1" vertex="1">
          <mxGeometry x="485" y="830" width="195" height="20" as="geometry" />
        </mxCell>
        <mxCell id="z22SKGCjVlnt71E5X0xT-33" value="" style="endArrow=open;html=1;rounded=0;exitX=1;exitY=0.5;exitDx=0;exitDy=0;entryX=0.5;entryY=0;entryDx=0;entryDy=0;endFill=0;movable=1;resizable=1;rotatable=1;deletable=1;editable=1;locked=0;connectable=1;" parent="1" source="z22SKGCjVlnt71E5X0xT-29" target="z22SKGCjVlnt71E5X0xT-31" edge="1">
          <mxGeometry width="50" height="50" relative="1" as="geometry">
            <mxPoint x="440" y="1160" as="sourcePoint" />
            <mxPoint x="490" y="1110" as="targetPoint" />
            <Array as="points">
              <mxPoint x="620" y="850" />
              <mxPoint x="640" y="850" />
            </Array>
          </mxGeometry>
        </mxCell>
        <mxCell id="z22SKGCjVlnt71E5X0xT-34" value="&lt;font face=&quot;Verdana&quot;&gt;&lt;span style=&quot;font-size: 8px;&quot;&gt;Nie&lt;/span&gt;&lt;/font&gt;" style="text;html=1;align=center;verticalAlign=bottom;whiteSpace=wrap;rounded=0;textShadow=0;fontStyle=0;movable=1;resizable=1;rotatable=1;deletable=1;editable=1;locked=0;connectable=1;" parent="1" vertex="1">
          <mxGeometry x="530" y="850" width="120" height="20" as="geometry" />
        </mxCell>
        <mxCell id="z22SKGCjVlnt71E5X0xT-37" value="" style="endArrow=open;html=1;rounded=0;exitX=0.5;exitY=1;exitDx=0;exitDy=0;entryX=0.5;entryY=0;entryDx=0;entryDy=0;endFill=0;movable=1;resizable=1;rotatable=1;deletable=1;editable=1;locked=0;connectable=1;" parent="1" source="z22SKGCjVlnt71E5X0xT-29" target="z22SKGCjVlnt71E5X0xT-35" edge="1">
          <mxGeometry width="50" height="50" relative="1" as="geometry">
            <mxPoint x="497.46000000000004" y="1059.88" as="sourcePoint" />
            <mxPoint x="490" y="991" as="targetPoint" />
            <Array as="points" />
          </mxGeometry>
        </mxCell>
        <mxCell id="z22SKGCjVlnt71E5X0xT-38" value="&lt;font face=&quot;Verdana&quot;&gt;&lt;span style=&quot;font-size: 8px;&quot;&gt;Tak&lt;/span&gt;&lt;/font&gt;" style="text;html=1;align=center;verticalAlign=bottom;whiteSpace=wrap;rounded=0;textShadow=0;fontStyle=0;movable=1;resizable=1;rotatable=1;deletable=1;editable=1;locked=0;connectable=1;" parent="1" vertex="1">
          <mxGeometry x="440" y="895" width="120" height="20" as="geometry" />
        </mxCell>
        <mxCell id="z22SKGCjVlnt71E5X0xT-43" value="" style="edgeStyle=orthogonalEdgeStyle;rounded=0;orthogonalLoop=1;jettySize=auto;html=1;endArrow=open;endFill=0;exitX=0.5;exitY=1;exitDx=0;exitDy=0;movable=1;resizable=1;rotatable=1;deletable=1;editable=1;locked=0;connectable=1;" parent="1" source="z22SKGCjVlnt71E5X0xT-35" edge="1" target="KxWSbJ0WImc6hU62bRun-1">
          <mxGeometry relative="1" as="geometry">
            <mxPoint x="510" y="1150" as="sourcePoint" />
            <mxPoint x="490" y="1080" as="targetPoint" />
          </mxGeometry>
        </mxCell>
        <mxCell id="z22SKGCjVlnt71E5X0xT-47" value="" style="edgeStyle=orthogonalEdgeStyle;rounded=0;orthogonalLoop=1;jettySize=auto;html=1;endArrow=open;endFill=0;exitX=0.5;exitY=1;exitDx=0;exitDy=0;entryX=0.5;entryY=0;entryDx=0;entryDy=0;movable=1;resizable=1;rotatable=1;deletable=1;editable=1;locked=0;connectable=1;" parent="1" source="z22SKGCjVlnt71E5X0xT-31" target="z22SKGCjVlnt71E5X0xT-39" edge="1">
          <mxGeometry relative="1" as="geometry">
            <mxPoint x="500" y="1355" as="sourcePoint" />
            <mxPoint x="500" y="1395" as="targetPoint" />
          </mxGeometry>
        </mxCell>
        <mxCell id="z22SKGCjVlnt71E5X0xT-55" value="Wyświetlenie formularza subskrypcji" style="whiteSpace=wrap;html=1;fillColor=#FCF2E3;rounded=1;gradientColor=#E8D7BE;gradientDirection=east;movable=1;resizable=1;rotatable=1;deletable=1;editable=1;locked=0;connectable=1;" parent="1" vertex="1">
          <mxGeometry x="470" y="250" width="120" height="50" as="geometry" />
        </mxCell>
        <mxCell id="z22SKGCjVlnt71E5X0xT-57" value="" style="rounded=0;orthogonalLoop=1;jettySize=auto;html=1;endArrow=open;endFill=0;exitX=0.5;exitY=1;exitDx=0;exitDy=0;entryX=1;entryY=0.5;entryDx=0;entryDy=0;movable=1;resizable=1;rotatable=1;deletable=1;editable=1;locked=0;connectable=1;" parent="1" source="z22SKGCjVlnt71E5X0xT-55" target="KxWSbJ0WImc6hU62bRun-52" edge="1">
          <mxGeometry relative="1" as="geometry">
            <mxPoint x="370" y="308" as="sourcePoint" />
            <mxPoint x="360.0000000000001" y="375" as="targetPoint" />
            <Array as="points">
              <mxPoint x="530" y="330" />
            </Array>
          </mxGeometry>
        </mxCell>
        <mxCell id="z22SKGCjVlnt71E5X0xT-29" value="" style="rhombus;whiteSpace=wrap;html=1;fillColor=#FCF2E3;rounded=0;gradientColor=#E8D7BE;gradientDirection=east;movable=1;resizable=1;rotatable=1;deletable=1;editable=1;locked=0;connectable=1;" parent="1" vertex="1">
          <mxGeometry x="510" y="840" width="30" height="40" as="geometry" />
        </mxCell>
        <mxCell id="Mx-L_WkLYWnQmIfqrnJd-10" value="" style="group;movable=1;resizable=1;rotatable=1;deletable=1;editable=1;locked=0;connectable=1;" parent="1" connectable="0" vertex="1">
          <mxGeometry x="590" y="880" width="120" height="50" as="geometry" />
        </mxCell>
        <mxCell id="z22SKGCjVlnt71E5X0xT-31" value="Wyświetlenie komunikatu o niepowodzeniu" style="whiteSpace=wrap;html=1;fillColor=#FCF2E3;rounded=1;gradientColor=#E8D7BE;gradientDirection=east;movable=1;resizable=1;rotatable=1;deletable=1;editable=1;locked=0;connectable=1;" parent="Mx-L_WkLYWnQmIfqrnJd-10" vertex="1">
          <mxGeometry width="120" height="50" as="geometry" />
        </mxCell>
        <mxCell id="Mx-L_WkLYWnQmIfqrnJd-11" value="" style="group;movable=1;resizable=1;rotatable=1;deletable=1;editable=1;locked=0;connectable=1;" parent="1" connectable="0" vertex="1">
          <mxGeometry x="460" y="950" width="120" height="40" as="geometry" />
        </mxCell>
        <mxCell id="z22SKGCjVlnt71E5X0xT-35" value="Aktywowanie subskrypcji" style="whiteSpace=wrap;html=1;fillColor=#FCF2E3;rounded=1;gradientColor=#E8D7BE;gradientDirection=east;movable=1;resizable=1;rotatable=1;deletable=1;editable=1;locked=0;connectable=1;" parent="Mx-L_WkLYWnQmIfqrnJd-11" vertex="1">
          <mxGeometry width="120" height="40" as="geometry" />
        </mxCell>
        <mxCell id="KxWSbJ0WImc6hU62bRun-1" value="Wyświetlenie potwierdzenia oraz szczegółów planu dostaw" style="whiteSpace=wrap;html=1;fillColor=#FCF2E3;rounded=1;gradientColor=#E8D7BE;gradientDirection=east;movable=1;resizable=1;rotatable=1;deletable=1;editable=1;locked=0;connectable=1;" vertex="1" parent="1">
          <mxGeometry x="460" y="1020" width="120" height="60" as="geometry" />
        </mxCell>
        <mxCell id="KxWSbJ0WImc6hU62bRun-9" value="" style="edgeStyle=orthogonalEdgeStyle;rounded=0;orthogonalLoop=1;jettySize=auto;html=1;endArrow=open;endFill=0;exitX=0.5;exitY=1;exitDx=0;exitDy=0;entryX=0.5;entryY=0;entryDx=0;entryDy=0;movable=1;resizable=1;rotatable=1;deletable=1;editable=1;locked=0;connectable=1;" edge="1" parent="1" target="KxWSbJ0WImc6hU62bRun-11" source="KxWSbJ0WImc6hU62bRun-1">
          <mxGeometry relative="1" as="geometry">
            <mxPoint x="535" y="1280.0000000000002" as="sourcePoint" />
            <mxPoint x="510" y="1405" as="targetPoint" />
          </mxGeometry>
        </mxCell>
        <mxCell id="KxWSbJ0WImc6hU62bRun-10" value="" style="group;movable=1;resizable=1;rotatable=1;deletable=1;editable=1;locked=0;connectable=1;" connectable="0" vertex="1" parent="1">
          <mxGeometry x="510" y="1140" width="20" height="20" as="geometry" />
        </mxCell>
        <mxCell id="KxWSbJ0WImc6hU62bRun-11" value="" style="ellipse;whiteSpace=wrap;html=1;aspect=fixed;fillColor=#FCF2E3;gradientColor=#E8D7BE;gradientDirection=east;movable=1;resizable=1;rotatable=1;deletable=1;editable=1;locked=0;connectable=1;" vertex="1" parent="KxWSbJ0WImc6hU62bRun-10">
          <mxGeometry width="20" height="20" as="geometry" />
        </mxCell>
        <mxCell id="KxWSbJ0WImc6hU62bRun-12" value="" style="ellipse;whiteSpace=wrap;html=1;aspect=fixed;fillColor=#000000;movable=1;resizable=1;rotatable=1;deletable=1;editable=1;locked=0;connectable=1;" vertex="1" parent="KxWSbJ0WImc6hU62bRun-10">
          <mxGeometry x="6" y="6" width="8" height="8" as="geometry" />
        </mxCell>
        <mxCell id="KxWSbJ0WImc6hU62bRun-18" style="edgeStyle=none;curved=1;rounded=0;orthogonalLoop=1;jettySize=auto;html=1;fontSize=12;startSize=8;endSize=8;" edge="1" parent="1" source="KxWSbJ0WImc6hU62bRun-16" target="KxWSbJ0WImc6hU62bRun-17">
          <mxGeometry relative="1" as="geometry" />
        </mxCell>
        <mxCell id="KxWSbJ0WImc6hU62bRun-16" value="Administrator" style="shape=umlActor;verticalLabelPosition=bottom;verticalAlign=top;html=1;" vertex="1" parent="1">
          <mxGeometry x="200" y="1410" width="30" height="60" as="geometry" />
        </mxCell>
        <mxCell id="KxWSbJ0WImc6hU62bRun-17" value="Przeglądanie listy użytkowników" style="ellipse;whiteSpace=wrap;html=1;" vertex="1" parent="1">
          <mxGeometry x="310" y="1370" width="140" height="70" as="geometry" />
        </mxCell>
        <mxCell id="KxWSbJ0WImc6hU62bRun-19" value="&amp;lt;&amp;lt;invokes&amp;gt;&amp;gt;" style="endArrow=open;endSize=12;dashed=1;html=1;rounded=0;fontSize=12;curved=1;exitX=1;exitY=0;exitDx=0;exitDy=0;entryX=0;entryY=0.5;entryDx=0;entryDy=0;" edge="1" parent="1" source="KxWSbJ0WImc6hU62bRun-17" target="KxWSbJ0WImc6hU62bRun-20">
          <mxGeometry width="160" relative="1" as="geometry">
            <mxPoint x="392.5" y="1500" as="sourcePoint" />
            <mxPoint x="552.5" y="1500" as="targetPoint" />
          </mxGeometry>
        </mxCell>
        <mxCell id="KxWSbJ0WImc6hU62bRun-20" value="Edycja konta użytkownika" style="ellipse;whiteSpace=wrap;html=1;" vertex="1" parent="1">
          <mxGeometry x="520" y="1280" width="140" height="70" as="geometry" />
        </mxCell>
        <mxCell id="KxWSbJ0WImc6hU62bRun-21" value="Usunięcie konta użytkownika" style="ellipse;whiteSpace=wrap;html=1;" vertex="1" parent="1">
          <mxGeometry x="540" y="1380" width="140" height="70" as="geometry" />
        </mxCell>
        <mxCell id="KxWSbJ0WImc6hU62bRun-22" value="&amp;lt;&amp;lt;invokes&amp;gt;&amp;gt;" style="endArrow=open;endSize=12;dashed=1;html=1;rounded=0;fontSize=12;curved=1;exitX=1;exitY=0.5;exitDx=0;exitDy=0;entryX=0;entryY=0.5;entryDx=0;entryDy=0;" edge="1" parent="1" source="KxWSbJ0WImc6hU62bRun-17" target="KxWSbJ0WImc6hU62bRun-21">
          <mxGeometry width="160" relative="1" as="geometry">
            <mxPoint x="443" y="1470" as="sourcePoint" />
            <mxPoint x="545" y="1415" as="targetPoint" />
          </mxGeometry>
        </mxCell>
        <mxCell id="KxWSbJ0WImc6hU62bRun-23" value="Tworzenie konta użytkownika" style="ellipse;whiteSpace=wrap;html=1;" vertex="1" parent="1">
          <mxGeometry x="480" y="1490" width="140" height="70" as="geometry" />
        </mxCell>
        <mxCell id="KxWSbJ0WImc6hU62bRun-24" value="&amp;lt;&amp;lt;invokes&amp;gt;&amp;gt;" style="endArrow=open;endSize=12;dashed=1;html=1;rounded=0;fontSize=12;curved=1;entryX=0;entryY=0;entryDx=0;entryDy=0;exitX=1;exitY=1;exitDx=0;exitDy=0;" edge="1" parent="1" source="KxWSbJ0WImc6hU62bRun-17" target="KxWSbJ0WImc6hU62bRun-23">
          <mxGeometry width="160" relative="1" as="geometry">
            <mxPoint x="440" y="1470" as="sourcePoint" />
            <mxPoint x="562" y="1425" as="targetPoint" />
          </mxGeometry>
        </mxCell>
        <mxCell id="KxWSbJ0WImc6hU62bRun-26" value="" style="group;movable=1;resizable=1;rotatable=1;deletable=1;editable=1;locked=0;connectable=1;" connectable="0" vertex="1" parent="1">
          <mxGeometry x="240" y="370" width="120" height="40" as="geometry" />
        </mxCell>
        <mxCell id="KxWSbJ0WImc6hU62bRun-27" value="Wprowadzenie danych" style="whiteSpace=wrap;html=1;fillColor=#FCF2E3;rounded=1;gradientColor=#E8D7BE;gradientDirection=east;movable=1;resizable=1;rotatable=1;deletable=1;editable=1;locked=0;connectable=1;" vertex="1" parent="KxWSbJ0WImc6hU62bRun-26">
          <mxGeometry width="120" height="40" as="geometry" />
        </mxCell>
        <mxCell id="KxWSbJ0WImc6hU62bRun-29" value="" style="group;movable=1;resizable=1;rotatable=1;deletable=1;editable=1;locked=0;connectable=1;" connectable="0" vertex="1" parent="1">
          <mxGeometry x="480" y="370" width="120" height="40" as="geometry" />
        </mxCell>
        <mxCell id="KxWSbJ0WImc6hU62bRun-30" value="Walidacja danych" style="whiteSpace=wrap;html=1;fillColor=#FCF2E3;rounded=1;gradientColor=#E8D7BE;gradientDirection=east;movable=1;resizable=1;rotatable=1;deletable=1;editable=1;locked=0;connectable=1;" vertex="1" parent="KxWSbJ0WImc6hU62bRun-29">
          <mxGeometry width="120" height="40" as="geometry" />
        </mxCell>
        <mxCell id="KxWSbJ0WImc6hU62bRun-31" style="edgeStyle=none;curved=1;rounded=0;orthogonalLoop=1;jettySize=auto;html=1;entryX=0;entryY=0.5;entryDx=0;entryDy=0;fontSize=12;startSize=8;endSize=8;" edge="1" parent="1" source="KxWSbJ0WImc6hU62bRun-27" target="KxWSbJ0WImc6hU62bRun-30">
          <mxGeometry relative="1" as="geometry" />
        </mxCell>
        <mxCell id="KxWSbJ0WImc6hU62bRun-32" value="" style="group;movable=1;resizable=1;rotatable=1;deletable=1;editable=1;locked=0;connectable=1;" connectable="0" vertex="1" parent="1">
          <mxGeometry x="480" y="640" width="120" height="40" as="geometry" />
        </mxCell>
        <mxCell id="KxWSbJ0WImc6hU62bRun-33" value="Wyświetlenie ekranu płatności" style="whiteSpace=wrap;html=1;fillColor=#FCF2E3;rounded=1;gradientColor=#E8D7BE;gradientDirection=east;movable=1;resizable=1;rotatable=1;deletable=1;editable=1;locked=0;connectable=1;" vertex="1" parent="KxWSbJ0WImc6hU62bRun-32">
          <mxGeometry width="120" height="40" as="geometry" />
        </mxCell>
        <mxCell id="KxWSbJ0WImc6hU62bRun-34" style="edgeStyle=none;curved=1;rounded=0;orthogonalLoop=1;jettySize=auto;html=1;fontSize=12;startSize=8;endSize=8;entryX=0.5;entryY=0;entryDx=0;entryDy=0;" edge="1" parent="1" source="KxWSbJ0WImc6hU62bRun-30" target="KxWSbJ0WImc6hU62bRun-43">
          <mxGeometry relative="1" as="geometry" />
        </mxCell>
        <mxCell id="KxWSbJ0WImc6hU62bRun-49" value="czy dane są poprawne?" style="edgeLabel;html=1;align=center;verticalAlign=middle;resizable=0;points=[];fontSize=12;" vertex="1" connectable="0" parent="KxWSbJ0WImc6hU62bRun-34">
          <mxGeometry x="0.1569" y="-2" relative="1" as="geometry">
            <mxPoint x="41" as="offset" />
          </mxGeometry>
        </mxCell>
        <mxCell id="KxWSbJ0WImc6hU62bRun-35" value="" style="group;movable=1;resizable=1;rotatable=1;deletable=1;editable=1;locked=0;connectable=1;" connectable="0" vertex="1" parent="1">
          <mxGeometry x="230" y="710" width="120" height="40" as="geometry" />
        </mxCell>
        <mxCell id="KxWSbJ0WImc6hU62bRun-36" value="Wprowadzenie danych płatności" style="whiteSpace=wrap;html=1;fillColor=#FCF2E3;rounded=1;gradientColor=#E8D7BE;gradientDirection=east;movable=1;resizable=1;rotatable=1;deletable=1;editable=1;locked=0;connectable=1;" vertex="1" parent="KxWSbJ0WImc6hU62bRun-35">
          <mxGeometry width="120" height="40" as="geometry" />
        </mxCell>
        <mxCell id="KxWSbJ0WImc6hU62bRun-37" style="edgeStyle=none;curved=1;rounded=0;orthogonalLoop=1;jettySize=auto;html=1;entryX=0.5;entryY=0;entryDx=0;entryDy=0;fontSize=12;startSize=8;endSize=8;" edge="1" parent="1" source="KxWSbJ0WImc6hU62bRun-33" target="KxWSbJ0WImc6hU62bRun-36">
          <mxGeometry relative="1" as="geometry" />
        </mxCell>
        <mxCell id="KxWSbJ0WImc6hU62bRun-38" value="" style="group;movable=1;resizable=1;rotatable=1;deletable=1;editable=1;locked=0;connectable=1;" connectable="0" vertex="1" parent="1">
          <mxGeometry x="480" y="730" width="120" height="40" as="geometry" />
        </mxCell>
        <mxCell id="KxWSbJ0WImc6hU62bRun-39" value="Wykonanie płatności" style="whiteSpace=wrap;html=1;fillColor=#FCF2E3;rounded=1;gradientColor=#E8D7BE;gradientDirection=east;movable=1;resizable=1;rotatable=1;deletable=1;editable=1;locked=0;connectable=1;" vertex="1" parent="KxWSbJ0WImc6hU62bRun-38">
          <mxGeometry width="120" height="40" as="geometry" />
        </mxCell>
        <mxCell id="KxWSbJ0WImc6hU62bRun-40" style="edgeStyle=none;curved=1;rounded=0;orthogonalLoop=1;jettySize=auto;html=1;fontSize=12;startSize=8;endSize=8;" edge="1" parent="1" source="KxWSbJ0WImc6hU62bRun-36" target="KxWSbJ0WImc6hU62bRun-39">
          <mxGeometry relative="1" as="geometry" />
        </mxCell>
        <mxCell id="KxWSbJ0WImc6hU62bRun-41" style="edgeStyle=none;curved=1;rounded=0;orthogonalLoop=1;jettySize=auto;html=1;entryX=0.5;entryY=0;entryDx=0;entryDy=0;fontSize=12;startSize=8;endSize=8;" edge="1" parent="1" source="KxWSbJ0WImc6hU62bRun-39" target="z22SKGCjVlnt71E5X0xT-29">
          <mxGeometry relative="1" as="geometry" />
        </mxCell>
        <mxCell id="z22SKGCjVlnt71E5X0xT-39" value="" style="ellipse;whiteSpace=wrap;html=1;aspect=fixed;fillColor=#FCF2E3;gradientColor=#E8D7BE;gradientDirection=east;movable=1;resizable=1;rotatable=1;deletable=1;editable=1;locked=0;connectable=1;" parent="1" vertex="1">
          <mxGeometry x="640" y="1000" width="20" height="20" as="geometry" />
        </mxCell>
        <mxCell id="z22SKGCjVlnt71E5X0xT-40" value="" style="ellipse;whiteSpace=wrap;html=1;aspect=fixed;fillColor=#000000;movable=1;resizable=1;rotatable=1;deletable=1;editable=1;locked=0;connectable=1;" parent="1" vertex="1">
          <mxGeometry x="646" y="1006" width="8" height="8" as="geometry" />
        </mxCell>
        <mxCell id="KxWSbJ0WImc6hU62bRun-47" style="edgeStyle=none;curved=1;rounded=0;orthogonalLoop=1;jettySize=auto;html=1;entryX=1;entryY=0.5;entryDx=0;entryDy=0;fontSize=12;startSize=8;endSize=8;" edge="1" parent="1" source="KxWSbJ0WImc6hU62bRun-43" target="KxWSbJ0WImc6hU62bRun-45">
          <mxGeometry relative="1" as="geometry" />
        </mxCell>
        <mxCell id="KxWSbJ0WImc6hU62bRun-48" value="dane niepoprawne" style="edgeLabel;html=1;align=center;verticalAlign=middle;resizable=0;points=[];fontSize=12;" vertex="1" connectable="0" parent="KxWSbJ0WImc6hU62bRun-47">
          <mxGeometry x="-0.2948" y="-2" relative="1" as="geometry">
            <mxPoint x="-45" y="-30" as="offset" />
          </mxGeometry>
        </mxCell>
        <mxCell id="KxWSbJ0WImc6hU62bRun-50" style="edgeStyle=none;curved=1;rounded=0;orthogonalLoop=1;jettySize=auto;html=1;fontSize=12;startSize=8;endSize=8;" edge="1" parent="1" source="KxWSbJ0WImc6hU62bRun-43" target="KxWSbJ0WImc6hU62bRun-33">
          <mxGeometry relative="1" as="geometry" />
        </mxCell>
        <mxCell id="KxWSbJ0WImc6hU62bRun-51" value="dane poprawne" style="edgeLabel;html=1;align=center;verticalAlign=middle;resizable=0;points=[];fontSize=12;" vertex="1" connectable="0" parent="KxWSbJ0WImc6hU62bRun-50">
          <mxGeometry x="-0.0484" relative="1" as="geometry">
            <mxPoint as="offset" />
          </mxGeometry>
        </mxCell>
        <mxCell id="KxWSbJ0WImc6hU62bRun-43" value="" style="rhombus;whiteSpace=wrap;html=1;fillColor=#FCF2E3;rounded=0;gradientColor=#E8D7BE;gradientDirection=east;movable=1;resizable=1;rotatable=1;deletable=1;editable=1;locked=0;connectable=1;" vertex="1" parent="1">
          <mxGeometry x="624" y="480" width="30" height="40" as="geometry" />
        </mxCell>
        <mxCell id="KxWSbJ0WImc6hU62bRun-45" value="" style="group;movable=1;resizable=1;rotatable=1;deletable=1;editable=1;locked=0;connectable=1;" connectable="0" vertex="1" parent="1">
          <mxGeometry x="450" y="480" width="120" height="50" as="geometry" />
        </mxCell>
        <mxCell id="KxWSbJ0WImc6hU62bRun-46" value="Wyświetlenie komunikatu o błędzie" style="whiteSpace=wrap;html=1;fillColor=#FCF2E3;rounded=1;gradientColor=#E8D7BE;gradientDirection=east;movable=1;resizable=1;rotatable=1;deletable=1;editable=1;locked=0;connectable=1;" vertex="1" parent="KxWSbJ0WImc6hU62bRun-45">
          <mxGeometry width="120" height="50" as="geometry" />
        </mxCell>
        <mxCell id="KxWSbJ0WImc6hU62bRun-54" style="edgeStyle=none;curved=1;rounded=0;orthogonalLoop=1;jettySize=auto;html=1;fontSize=12;startSize=8;endSize=8;" edge="1" parent="1" source="KxWSbJ0WImc6hU62bRun-52" target="KxWSbJ0WImc6hU62bRun-27">
          <mxGeometry relative="1" as="geometry" />
        </mxCell>
        <mxCell id="KxWSbJ0WImc6hU62bRun-52" value="" style="rhombus;whiteSpace=wrap;html=1;fillColor=#FCF2E3;rounded=0;gradientColor=#E8D7BE;gradientDirection=east;movable=1;resizable=1;rotatable=1;deletable=1;editable=1;locked=0;connectable=1;" vertex="1" parent="1">
          <mxGeometry x="285" y="300" width="30" height="40" as="geometry" />
        </mxCell>
        <mxCell id="KxWSbJ0WImc6hU62bRun-53" style="edgeStyle=none;curved=1;rounded=0;orthogonalLoop=1;jettySize=auto;html=1;entryX=0;entryY=0.5;entryDx=0;entryDy=0;fontSize=12;startSize=8;endSize=8;" edge="1" parent="1" source="KxWSbJ0WImc6hU62bRun-46" target="KxWSbJ0WImc6hU62bRun-52">
          <mxGeometry relative="1" as="geometry">
            <Array as="points">
              <mxPoint x="20" y="430" />
            </Array>
          </mxGeometry>
        </mxCell>
      </root>
    </mxGraphModel>
  </diagram>
</mxfile>
